<svg xmlns="http://www.w3.org/2000/svg" xml:space="preserve" style="enable-background:new 0 0 1000 1000" viewBox="0 0 1000 1000" id="school-bag">
  <path d="M0 0h1000v1000H0z" style="fill:#e6f7d5"></path>
  <g style="opacity:.17">
    <path d="M275.509 386.297v40.919h-81.837M357.347 427.216h-81.838v-40.919M234.591 427.216h81.838v40.919h-81.838zM298.762 509.054h-23.253v-40.919h81.838M193.672 468.135h81.837v40.919h-66.36" style="fill:none;stroke:#1b3242;stroke-width:8;stroke-linecap:round;stroke-linejoin:round;stroke-miterlimit:10"></path>
    <path d="M165.775 427.216h68.816v40.919h-40.919M375.485 468.135h-59.057v-40.919h28.368" style="fill:none;stroke:#1b3242;stroke-width:8;stroke-linecap:round;stroke-linejoin:round;stroke-miterlimit:10"></path>
  </g>
  <g style="opacity:.17">
    <path d="M650.084 725h30v23h-30zM763.417 725h30v23h-30z" style="fill:none;stroke:#1b3242;stroke-width:10;stroke-linecap:round;stroke-linejoin:round;stroke-miterlimit:10"></path>
    <path d="M461.25 367.5h521v194h-521z" style="fill:none;stroke:#1b3242;stroke-width:10;stroke-linecap:round;stroke-linejoin:round;stroke-miterlimit:10" transform="rotate(90 721.75 464.5)"></path>
    <path d="M642.75 222h158v474h-158z" style="fill:none;stroke:#1b3242;stroke-width:10;stroke-linecap:round;stroke-linejoin:round;stroke-miterlimit:10"></path>
    <path d="M772.75 263.347h28v111.5h-28z" style="fill:none;stroke:#1b3242;stroke-width:10;stroke-linecap:round;stroke-linejoin:round;stroke-miterlimit:10"></path>
    <path d="M703.041 467.979h26.542v111.5h-26.542z" style="fill:none;stroke:#1b3242;stroke-width:10;stroke-linecap:round;stroke-linejoin:round;stroke-miterlimit:10" transform="rotate(-90 716.312 523.73)"></path>
    <path d="M717.729 441.438h26.542v111.5h-26.542z" style="fill:none;stroke:#1b3242;stroke-width:10;stroke-linecap:round;stroke-linejoin:round;stroke-miterlimit:10" transform="rotate(-90 731 497.188)"></path>
    <path d="M705.938 417.313h22.125v111.5h-22.125z" style="fill:none;stroke:#1b3242;stroke-width:10;stroke-linecap:round;stroke-linejoin:round;stroke-miterlimit:10" transform="rotate(-90 717 473.062)"></path>
    <path d="M772.75 291h28M748.95 271.5h23.8v103.347h-23.8zM748.95 297.131h23.8" style="fill:none;stroke:#1b3242;stroke-width:10;stroke-linecap:round;stroke-linejoin:round;stroke-miterlimit:10"></path>
    <path d="M702.558 277.178h22.399v97.262h-22.399z" style="fill:none;stroke:#1b3242;stroke-width:10;stroke-linecap:round;stroke-linejoin:round;stroke-miterlimit:10" transform="rotate(30 713.717 325.732)"></path>
    <path d="m716.312 298.983 19.398 11.199M704.7 484.125v26.333M686.284 462v21.917M689.2 510.458V537M642.75 379.667h158V394.5h-158zM642.75 537h158v15h-158z" style="fill:none;stroke:#1b3242;stroke-width:10;stroke-linecap:round;stroke-linejoin:round;stroke-miterlimit:10"></path>
    <path d="M642.75 544.5h158V696h-158z" style="fill:none;stroke:#1b3242;stroke-width:10;stroke-linecap:round;stroke-linejoin:round;stroke-miterlimit:10"></path>
    <path d="M765.132 587.23v66.04" style="fill:none;stroke:#1b3242;stroke-width:11;stroke-linecap:round;stroke-linejoin:round;stroke-miterlimit:10"></path>
  </g>
  <path d="M822.417 748h7.333M741.75 748h45M298.547 748H722M218.572 748h56.937" style="fill:none;stroke:#013711;stroke-width:10;stroke-linecap:round;stroke-linejoin:round;stroke-miterlimit:10"></path>
  <path d="M551 261h-91.487c-24.301 0-44 19.699-44 44v37.918h26V305c0-9.941 8.059-18 18-18H551c9.941 0 18 8.059 18 18v37.918h26V305c0-24.301-19.699-44-44-44z" style="fill:#0b7c3e"></path>
  <path d="M415.667 308.667h26.667v13h-26.667zM568.333 308.667H595v13h-26.667z" style="opacity:.5;fill:#049448"></path>
  <path d="M551 261h-91.487c-24.301 0-44 19.699-44 44v9.333c0-24.301 19.699-44 44-44H551c24.301 0 44 19.699 44 44V305c0-24.301-19.699-44-44-44z" style="opacity:.46;fill:#70bf43"></path>
  <path d="M551 261h-91.487c-24.301 0-44 19.699-44 44v37.918h26V305c0-9.941 8.059-18 18-18H551c9.941 0 18 8.059 18 18v37.918h26V305c0-24.301-19.699-44-44-44z" style="fill:none;stroke:#013711;stroke-width:10;stroke-linecap:round;stroke-linejoin:round;stroke-miterlimit:10"></path>
  <path d="M369.747 700.937h-25.425c-19.994 0-36.671-15.462-37.973-35.413-3.579-54.82 2.172-97.605 14.162-130.743 6.485-17.926 32.014-17.926 38.5 0 14.457 39.961 19.844 93.95 10.736 166.156z" style="fill:#0b7c3e"></path>
  <path d="M361.01 534.78c-5.141-14.21-22.242-17.144-32.344-8.824l2.859 115.978c.394 15.986-6.818 30.384-18.329 39.755 6.569 11.543 19.017 19.248 33.126 19.248h25.425c9.108-72.206 3.721-126.195-10.737-166.157z" style="opacity:.2;fill:#0b7c3e"></path>
  <path d="M369.747 700.937h-25.425c-19.994 0-36.671-15.462-37.973-35.413-3.579-54.82 2.172-97.605 14.162-130.743 6.485-17.926 32.014-17.926 38.5 0 14.457 39.961 19.844 93.95 10.736 166.156z" style="fill:none;stroke:#013711;stroke-width:10;stroke-linecap:round;stroke-linejoin:round;stroke-miterlimit:10"></path>
  <path d="M640.766 693.989h25.425c19.994 0 36.671-15.462 37.973-35.413 3.579-54.82-2.172-97.605-14.162-130.743-6.485-17.926-32.014-17.926-38.5 0-14.457 39.962-19.844 93.951-10.736 166.156z" style="fill:#0b7c3e"></path>
  <path d="m678.987 633.912 2.833-114.925c-10.105-8.292-27.181-5.352-32.318 8.846-14.458 39.962-19.844 93.951-10.737 166.156h25.425c14.406 0 27.089-8.029 33.541-19.979-11.754-9.36-19.143-23.919-18.744-40.098z" style="opacity:.2;fill:#0b7c3e"></path>
  <path d="M640.766 693.989h25.425c19.994 0 36.671-15.462 37.973-35.413 3.579-54.82-2.172-97.605-14.162-130.743-6.485-17.926-32.014-17.926-38.5 0-14.457 39.962-19.844 93.951-10.736 166.156z" style="fill:none;stroke:#013711;stroke-width:10;stroke-linecap:round;stroke-linejoin:round;stroke-miterlimit:10"></path>
  <path d="M614.454 748H396.059c-24.001 0-43.983-18.312-46.209-42.209a1295.623 1295.623 0 0 1 0-240.33c2.226-23.897 22.208-42.209 46.209-42.209h218.395c24.001 0 43.983 18.312 46.209 42.209a1295.623 1295.623 0 0 1 0 240.33C658.437 729.688 638.455 748 614.454 748z" style="fill:#049448"></path>
  <path d="M660.663 691.873c-2.226 23.897-22.208 42.209-46.209 42.209H396.059c-24.001 0-43.983-18.311-46.209-42.209a1295.088 1295.088 0 0 1-5.544-113.206 1295.676 1295.676 0 0 0 5.544 127.124C352.076 729.688 372.058 748 396.059 748h218.395c24.001 0 43.983-18.312 46.209-42.209a1295.34 1295.34 0 0 0 5.544-127.124 1295.478 1295.478 0 0 1-5.544 113.206z" style="opacity:.29;fill:#0b7c3e"></path>
  <ellipse cx="505.256" cy="651.213" rx="32.744" ry="20.121" style="opacity:.5;fill:none;stroke:#049448;stroke-width:8;stroke-miterlimit:10"></ellipse>
  <path d="M378.697 589.564c41.95 2.165 84.53 3.263 126.559 3.263 42.029 0 84.609-1.098 126.56-3.263 12.887-.665 24.682-5.613 34.359-13.599a1295.815 1295.815 0 0 0-5.511-107.504c-2.226-23.897-22.208-42.209-46.209-42.209H396.059c-24.001 0-43.983 18.312-46.209 42.209a1295.426 1295.426 0 0 0-5.511 107.504c9.677 7.986 21.471 12.934 34.358 13.599z" style="opacity:.5;fill:#049448"></path>
  <path d="M396.059 734.082c-16.872 0-30.78-12.717-32.351-29.582-7.348-78.879-7.348-158.869 0-237.748 1.571-16.865 15.479-29.582 32.351-29.582h218.395c16.872 0 30.78 12.718 32.351 29.582 7.347 78.879 7.347 158.869 0 237.748-1.571 16.865-15.48 29.582-32.351 29.582H396.059z" style="fill:none;stroke:#013711;stroke-width:4;stroke-linecap:round;stroke-linejoin:round;stroke-dasharray:4.0053,8.0105"></path>
  <path d="M614.454 748H396.059c-24.001 0-43.983-18.312-46.209-42.209a1295.623 1295.623 0 0 1 0-240.33c2.226-23.897 22.208-42.209 46.209-42.209h218.395c24.001 0 43.983 18.312 46.209 42.209a1295.623 1295.623 0 0 1 0 240.33C658.437 729.688 638.455 748 614.454 748z" style="fill:none;stroke:#013711;stroke-miterlimit:10"></path>
  <path d="M614.454 748H396.059c-24.001 0-43.983-18.312-46.209-42.209a1295.623 1295.623 0 0 1 0-240.33c2.226-23.897 22.208-42.209 46.209-42.209h218.395c24.001 0 43.983 18.312 46.209 42.209a1295.623 1295.623 0 0 1 0 240.33C658.437 729.688 638.455 748 614.454 748z" style="fill:none;stroke:#013711;stroke-width:10;stroke-linecap:round;stroke-linejoin:round;stroke-miterlimit:10"></path>
  <path d="M631.3 576.578a2446.544 2446.544 0 0 1-252.088 0c-29.032-1.498-51.108-28.852-50.832-62.313.38-45.95 2.088-90.892 5.096-135.086 2.118-31.124 24.927-55.931 52.492-57.274a2450.804 2450.804 0 0 1 238.575 0c27.566 1.343 50.374 26.15 52.492 57.274 3.008 44.194 4.716 89.136 5.096 135.086.278 33.462-21.799 60.815-50.831 62.313z" style="fill:#70bf43"></path>
  <path d="M631.3 567.578a2446.544 2446.544 0 0 1-252.088 0c-27.934-1.441-49.418-26.823-50.758-58.548-.023 2.08-.057 4.151-.074 6.235-.276 33.462 21.8 60.815 50.832 62.313a2446.544 2446.544 0 0 0 252.088 0c29.032-1.498 51.108-28.852 50.832-62.313-.017-2.084-.052-4.155-.074-6.235-1.339 31.725-22.824 57.107-50.758 58.548z" style="opacity:.41;fill:#013711"></path>
  <path d="M335.015 522.562c.365-45.494 2.01-89.991 4.905-133.747 2.039-30.815 23.992-55.377 50.523-56.706a2292.968 2292.968 0 0 1 229.626 0c26.532 1.329 48.485 25.891 50.523 56.706 2.895 43.756 4.54 88.253 4.905 133.747.094 11.724-2.516 22.682-7.154 32.025 8.724-11.125 13.923-25.991 13.789-42.322-.38-45.95-2.088-90.892-5.096-135.086-2.118-31.124-24.927-55.931-52.492-57.274a2450.804 2450.804 0 0 0-238.575 0c-27.566 1.343-50.374 26.15-52.492 57.274-3.008 44.194-4.717 89.136-5.096 135.086-.135 16.331 5.065 31.196 13.789 42.322-4.639-9.343-7.249-20.301-7.155-32.025z" style="opacity:.65;fill:#70bf43"></path>
  <path d="M537.871 455.488c-21.873.251-43.749.25-65.622-.005-26.79-.434-48.503-21.013-48.503-45.329v-19.275c0-7.543 6.585-13.693 14.832-13.887a2836.77 2836.77 0 0 1 133.357 0c8.247.194 14.832 6.344 14.832 13.887v18.916c0 24.409-22 45.259-48.896 45.693z" style="opacity:.41;fill:none;stroke:#013711;stroke-width:10;stroke-linecap:round;stroke-linejoin:round;stroke-miterlimit:10"></path>
  <path d="M631.3 576.578a2446.544 2446.544 0 0 1-252.088 0c-29.032-1.498-51.108-28.852-50.832-62.313.38-45.95 2.088-90.892 5.096-135.086 2.118-31.124 24.927-55.931 52.492-57.274a2450.804 2450.804 0 0 1 238.575 0c27.566 1.343 50.374 26.15 52.492 57.274 3.008 44.194 4.716 89.136 5.096 135.086.278 33.462-21.799 60.815-50.831 62.313z" style="fill:none;stroke:#013711;stroke-width:10;stroke-linecap:round;stroke-linejoin:round;stroke-miterlimit:10"></path>
  <path d="M505.256 565.909c-41.619 0-83.785-1.087-125.326-3.231-21.317-1.099-37.847-22.314-37.632-48.299.373-45.198 2.077-90.368 5.065-134.255 1.624-23.858 18.879-43.324 39.284-44.318a2449.93 2449.93 0 0 1 118.61-2.888c39.354 0 79.26.972 118.61 2.888 20.404.994 37.66 20.461 39.284 44.318 2.988 43.899 4.691 89.069 5.064 134.255.215 25.985-16.314 47.2-37.632 48.299a2442.533 2442.533 0 0 1-125.327 3.231z" style="fill:none;stroke:#013711;stroke-width:4;stroke-linecap:round;stroke-linejoin:round;stroke-dasharray:4.0033,8.0067"></path>
  <path d="M537.871 447.488c-21.873.251-43.749.25-65.622-.005-26.79-.434-48.503-21.013-48.503-45.329v-19.275c0-7.543 6.585-13.693 14.832-13.887a2836.77 2836.77 0 0 1 133.357 0c8.247.194 14.832 6.344 14.832 13.887v18.916c0 24.409-22 45.259-48.896 45.693z" style="fill:#0bb68f"></path>
  <path d="M537.871 430.425c-21.873.251-43.749.25-65.622-.005-26.79-.434-48.502-21.013-48.503-45.329v-2.214V402.154c.001 24.316 21.713 44.895 48.503 45.329 21.873.254 43.749.256 65.622.005 26.896-.434 48.896-21.284 48.896-45.693v-17.063c0 24.409-22 45.26-48.896 45.693z" style="opacity:.43;fill:#0bb68f"></path>
  <path d="M571.935 368.992a2836.77 2836.77 0 0 0-133.357 0c-8.247.194-14.832 6.344-14.832 13.887v7.999c0-7.542 6.585-13.692 14.832-13.886a2836.77 2836.77 0 0 1 133.357 0c8.247.194 14.832 6.344 14.832 13.887v-8c0-7.542-6.585-13.693-14.832-13.887z" style="opacity:.7;fill:#0bb68f"></path>
  <path d="M537.871 447.488c-21.873.251-43.749.25-65.622-.005-26.79-.434-48.503-21.013-48.503-45.329v-19.275c0-7.543 6.585-13.693 14.832-13.887a2836.77 2836.77 0 0 1 133.357 0c8.247.194 14.832 6.344 14.832 13.887v18.916c0 24.409-22 45.259-48.896 45.693z" style="fill:none;stroke:#013711;stroke-width:10;stroke-linecap:round;stroke-linejoin:round;stroke-miterlimit:10"></path>
  <path d="M537.871 447.488c-21.873.251-43.749.25-65.622-.005-26.79-.434-48.503-21.013-48.503-45.329v-19.275c0-7.543 6.585-13.693 14.832-13.887a2836.77 2836.77 0 0 1 133.357 0c8.247.194 14.832 6.344 14.832 13.887v18.916c0 24.409-22 45.259-48.896 45.693z" style="fill:none;stroke:#013711;stroke-width:10;stroke-linecap:round;stroke-linejoin:round;stroke-miterlimit:10"></path>
  <g style="opacity:.41">
    <path d="M442.199 568.607H395.14a5 5 0 0 1-4.405-2.636l-14.575-27.157c-9.81-18.063-5.989-39.265 9.745-53.993l20.989-19.624c6.37-5.963 17.156-5.944 23.553.043l20.993 19.731c15.695 14.689 19.516 35.831 9.728 53.854l-14.563 27.145a4.998 4.998 0 0 1-4.406 2.637zm-44.067-10h41.076l13.16-24.531c7.56-13.92 4.506-30.322-7.769-41.81l-20.993-19.731c-2.499-2.339-7.396-2.358-9.88-.034l-20.989 19.624c-12.305 11.517-15.358 27.98-7.778 41.94l13.173 24.542z" style="fill:#013711"></path>
  </g>
  <g style="opacity:.41">
    <path d="M418.218 693.702c-10.431 0-18.917-8.486-18.917-18.918V513.57a5 5 0 0 1 5-5h27.835a5 5 0 0 1 5 5v161.214c0 10.432-8.487 18.918-18.918 18.918zm-8.917-175.132v156.214c0 4.917 4 8.918 8.917 8.918s8.918-4.001 8.918-8.918V518.57h-17.835z" style="fill:#013711"></path>
  </g>
  <path d="M397.257 556.608h42.825l13.264-25.912c7.873-15.194 4.756-33.131-7.969-45.613l-19.099-18.812c-4.041-3.964-11.176-4.003-15.217-.039l-19.099 18.714c-12.725 12.482-15.842 30.566-7.969 45.76l13.264 25.902z" style="fill:#049448"></path>
  <path d="M395.141 556.608h47.058l14.575-27.168c8.651-15.93 5.226-34.737-8.757-47.824l-20.987-19.724c-4.44-4.156-12.281-4.197-16.721-.041l-20.987 19.622c-13.983 13.087-17.408 32.048-8.757 47.978l14.576 27.157z" style="fill:none;stroke:#013711;stroke-width:10;stroke-linecap:round;stroke-linejoin:round;stroke-miterlimit:10"></path>
  <path d="M402.624 546.607h-1.5l-.71-1.321" style="fill:none;stroke:#013711;stroke-width:3;stroke-linecap:round;stroke-linejoin:round"></path>
  <path d="m397.116 539.141-7.739-14.42c-6.483-11.939-3.813-26.033 6.779-35.947l20.982-19.618c.169-.158.716-.401 1.486-.401.81 0 1.385.263 1.573.439l20.971 19.709c10.737 10.05 13.344 23.749 6.817 35.765l-9.413 17.546" style="fill:none;stroke:#013711;stroke-width:3;stroke-linecap:round;stroke-linejoin:round;stroke-dasharray:2.989,6.9744"></path>
  <path d="m436.924 545.286-.709 1.321h-1.5" style="fill:none;stroke:#013711;stroke-width:3;stroke-linecap:round;stroke-linejoin:round"></path>
  <path d="M428.644 546.607h-22.985" style="fill:none;stroke:#013711;stroke-width:3;stroke-linecap:round;stroke-linejoin:round;stroke-dasharray:2.602,6.0714"></path>
  <path d="M418.334 682.482c-7.687 0-13.918-6.231-13.918-13.918V507.351h27.836v161.214c0 7.686-6.231 13.917-13.918 13.917z" style="fill:#f9941c"></path>
  <path d="M418.334 673.192c-7.687 0-13.918-6.231-13.918-13.918v9.29c0 7.687 6.231 13.918 13.918 13.918 7.687 0 13.918-6.231 13.918-13.918v-9.29c0 7.687-6.231 13.918-13.918 13.918zM404.416 590.471h27.836v22.533h-27.836z" style="opacity:.37;fill:#f9941c"></path>
  <path d="M418.334 682.482h0c-7.687 0-13.918-6.231-13.918-13.918V507.351h27.836v161.214c0 7.686-6.231 13.917-13.918 13.917z" style="fill:none;stroke:#013711;stroke-width:8;stroke-linecap:round;stroke-linejoin:round;stroke-miterlimit:10"></path>
  <path d="M404.416 610.961v-20.49h27.836v20.49h11.598v-26.474a5.614 5.614 0 0 0-5.614-5.614h-39.803a5.614 5.614 0 0 0-5.614 5.614v26.474h11.597z" style="fill:#fff"></path>
  <path d="M404.416 610.961v-20.49h27.836v20.49h11.598v-22.84a9.248 9.248 0 0 0-9.248-9.248h-32.535a9.248 9.248 0 0 0-9.248 9.248v22.84h11.597z" style="fill:none;stroke:#013711;stroke-width:8;stroke-linecap:round;stroke-linejoin:round;stroke-miterlimit:10"></path>
  <path d="m422.93 518.408-9.192 9.192M422.93 527.6l-9.192-9.192" style="fill:none;stroke:#013711;stroke-width:4;stroke-linecap:round;stroke-linejoin:round;stroke-miterlimit:10"></path>
  <circle cx="418.218" cy="610.379" r="4.625" style="fill:#fff"></circle>
  <circle cx="418.218" cy="608.379" r="4.625" style="fill:none;stroke:#013711;stroke-width:4;stroke-linecap:round;stroke-linejoin:round;stroke-miterlimit:10"></circle>
  <circle cx="418.218" cy="626.376" r="4.625" style="fill:#fff"></circle>
  <circle cx="418.218" cy="626.376" r="4.625" style="fill:none;stroke:#013711;stroke-width:4;stroke-linecap:round;stroke-linejoin:round;stroke-miterlimit:10"></circle>
  <circle cx="418.218" cy="646.713" r="4.625" style="fill:#fff"></circle>
  <circle cx="418.218" cy="646.713" r="4.625" style="fill:none;stroke:#013711;stroke-width:4;stroke-linecap:round;stroke-linejoin:round;stroke-miterlimit:10"></circle>
  <path d="M418.218 611.004a3.375 3.375 0 0 1-3.375-3.375v-29.381a3.375 3.375 0 1 1 6.75 0v29.381a3.375 3.375 0 0 1-3.375 3.375z" style="fill:#fff"></path>
  <path d="M418.218 611.004h0a3.375 3.375 0 0 1-3.375-3.375v-29.381a3.375 3.375 0 0 1 3.375-3.375h0a3.375 3.375 0 0 1 3.375 3.375v29.381a3.375 3.375 0 0 1-3.375 3.375z" style="fill:none;stroke:#013711;stroke-width:4;stroke-linecap:round;stroke-linejoin:round;stroke-miterlimit:10"></path>
  <g style="opacity:.41">
    <path d="M615.372 569.607h-47.058a5 5 0 0 1-4.405-2.636l-14.576-27.157c-9.81-18.064-5.988-39.267 9.746-53.993l20.988-19.624c6.371-5.962 17.157-5.944 23.554.043l20.993 19.731c15.694 14.688 19.516 35.831 9.727 53.854l-14.563 27.145a4.998 4.998 0 0 1-4.406 2.637zm-44.066-10h41.075l13.16-24.531c7.561-13.92 4.507-30.322-7.768-41.81l-20.993-19.731c-2.499-2.338-7.398-2.358-9.881-.034l-20.988 19.624c-12.306 11.516-15.359 27.98-7.779 41.94l13.174 24.542z" style="fill:#013711"></path>
  </g>
  <path d="M570.431 556.608h42.825l13.264-25.912c7.873-15.194 4.756-33.131-7.969-45.613l-19.099-18.812c-4.041-3.964-11.176-4.003-15.217-.039l-19.099 18.714c-12.725 12.482-15.842 30.566-7.969 45.76l13.264 25.902z" style="fill:#049448"></path>
  <path d="M568.314 556.608h47.058l14.576-27.168c8.651-15.93 5.226-34.737-8.757-47.824l-20.987-19.724c-4.44-4.156-12.281-4.197-16.721-.041l-20.987 19.622c-13.983 13.087-17.408 32.048-8.757 47.978l14.575 27.157z" style="fill:none;stroke:#013711;stroke-width:10;stroke-linecap:round;stroke-linejoin:round;stroke-miterlimit:10"></path>
  <path d="M575.797 546.607h-1.5l-.709-1.321" style="fill:none;stroke:#013711;stroke-width:3;stroke-linecap:round;stroke-linejoin:round"></path>
  <path d="m570.289 539.141-7.74-14.42c-6.483-11.939-3.813-26.033 6.779-35.947l20.982-19.618c.169-.158.716-.401 1.486-.401.81 0 1.385.263 1.573.439l20.971 19.709c10.737 10.05 13.344 23.749 6.817 35.765l-9.413 17.546" style="fill:none;stroke:#013711;stroke-width:3;stroke-linecap:round;stroke-linejoin:round;stroke-dasharray:2.989,6.9744"></path>
  <path d="m610.098 545.286-.709 1.321h-1.5" style="fill:none;stroke:#013711;stroke-width:3;stroke-linecap:round;stroke-linejoin:round"></path>
  <path d="M601.817 546.607h-22.984" style="fill:none;stroke:#013711;stroke-width:3;stroke-linecap:round;stroke-linejoin:round;stroke-dasharray:2.602,6.0714"></path>
  <g style="opacity:.41">
    <path d="M591.508 693.482c-10.432 0-18.918-8.486-18.918-18.918V513.351a5 5 0 0 1 5-5h27.836a5 5 0 0 1 5 5v161.214c0 10.431-8.487 18.917-18.918 18.917zm-8.918-175.131v156.214c0 4.917 4.001 8.918 8.918 8.918s8.918-4.001 8.918-8.918V518.351H582.59z" style="fill:#013711"></path>
  </g>
  <path d="M591.508 682.482c-7.687 0-13.918-6.231-13.918-13.918V507.351h27.835v161.214c0 7.686-6.231 13.917-13.917 13.917z" style="fill:#f9941c"></path>
  <path d="M591.508 672.878c-7.687 0-13.918-6.231-13.918-13.918v10.604c0 7.687 6.231 13.918 13.918 13.918s13.918-6.231 13.918-13.918V658.96c-.001 7.687-6.232 13.918-13.918 13.918zM577.474 590.471h27.836v22.533h-27.836z" style="opacity:.37;fill:#f9941c"></path>
  <path d="M591.508 682.482h0c-7.687 0-13.918-6.231-13.918-13.918V507.351h27.835v161.214c0 7.686-6.231 13.917-13.917 13.917z" style="fill:none;stroke:#013711;stroke-width:8;stroke-linecap:round;stroke-linejoin:round;stroke-miterlimit:10"></path>
  <path d="M577.59 610.961v-20.49h27.835v20.49h11.598v-26.474a5.614 5.614 0 0 0-5.614-5.614h-39.803a5.614 5.614 0 0 0-5.614 5.614v26.474h11.598z" style="fill:#fff"></path>
  <path d="M577.59 610.961v-20.49h27.835v20.49h11.598v-22.84a9.248 9.248 0 0 0-9.248-9.248H575.24a9.248 9.248 0 0 0-9.248 9.248v22.84h11.598z" style="fill:none;stroke:#013711;stroke-width:8;stroke-linecap:round;stroke-linejoin:round;stroke-miterlimit:10"></path>
  <path d="m596.104 518.408-9.193 9.192M596.104 527.6l-9.193-9.192" style="fill:none;stroke:#013711;stroke-width:4;stroke-linecap:round;stroke-linejoin:round;stroke-miterlimit:10"></path>
  <circle cx="591.392" cy="610.379" r="4.625" style="fill:#fff"></circle>
  <circle cx="591.392" cy="608.379" r="4.625" style="fill:none;stroke:#013711;stroke-width:4;stroke-linecap:round;stroke-linejoin:round;stroke-miterlimit:10"></circle>
  <circle cx="591.392" cy="626.376" r="4.625" style="fill:#fff"></circle>
  <circle cx="591.392" cy="626.376" r="4.625" style="fill:none;stroke:#013711;stroke-width:4;stroke-linecap:round;stroke-linejoin:round;stroke-miterlimit:10"></circle>
  <circle cx="591.392" cy="646.713" r="4.625" style="fill:#fff"></circle>
  <circle cx="591.392" cy="646.713" r="4.625" style="fill:none;stroke:#013711;stroke-width:4;stroke-linecap:round;stroke-linejoin:round;stroke-miterlimit:10"></circle>
  <path d="M591.392 611.004a3.375 3.375 0 0 1-3.375-3.375v-29.381a3.375 3.375 0 1 1 6.75 0v29.381a3.375 3.375 0 0 1-3.375 3.375z" style="fill:#fff"></path>
  <path d="M591.392 611.004h0a3.375 3.375 0 0 1-3.375-3.375v-29.381a3.375 3.375 0 0 1 3.375-3.375h0a3.375 3.375 0 0 1 3.375 3.375v29.381a3.375 3.375 0 0 1-3.375 3.375z" style="fill:none;stroke:#013711;stroke-width:4;stroke-linecap:round;stroke-linejoin:round;stroke-miterlimit:10"></path>
  <path d="M579.844 417.155c3.544 4.445 10.3 4.445 13.845 0a8.856 8.856 0 0 0 1.106-9.253l-8.028-17.263-8.028 17.263a8.854 8.854 0 0 0 1.105 9.253z" style="fill:#fff"></path>
  <path d="M579.844 417.155h0c3.544 4.445 10.3 4.445 13.845 0h0a8.856 8.856 0 0 0 1.106-9.253l-8.028-17.263-8.028 17.263a8.854 8.854 0 0 0 1.105 9.253z" style="fill:none;stroke:#013711;stroke-width:6;stroke-linecap:round;stroke-linejoin:round;stroke-miterlimit:10"></path>
  <path d="M423.746 396H584.5" style="fill:none;stroke:#013711;stroke-width:9;stroke-linejoin:round;stroke-miterlimit:10;stroke-dasharray:5,4"></path>
  <ellipse cx="505.256" cy="646.213" rx="32.744" ry="20.121" style="fill:#fcca86"></ellipse>
  <path d="M505.256 631.759c16.518 0 30.172 7.517 32.414 17.287.213-.926.33-1.871.33-2.833 0-11.112-14.66-20.121-32.744-20.121s-32.744 9.008-32.744 20.121c0 .962.117 1.907.33 2.833 2.242-9.77 15.897-17.287 32.414-17.287z" style="opacity:.6;fill:#fcca86"></path>
  <path d="M505.256 657.333c-14.495 0-26.987-4.77-32.722-11.647-.007.176-.022.35-.022.527 0 11.112 14.66 20.12 32.744 20.12S538 657.325 538 646.213c0-.177-.014-.351-.022-.527-5.735 6.877-18.226 11.647-32.722 11.647z" style="opacity:.77;fill:#fcca86"></path>
  <ellipse cx="505.256" cy="646.213" rx="32.744" ry="20.121" style="fill:none;stroke:#013711;stroke-width:6;stroke-linecap:round;stroke-linejoin:round;stroke-miterlimit:10"></ellipse>
  <ellipse cx="505.256" cy="646.213" rx="32.744" ry="20.121" style="fill:none;stroke:#013711;stroke-width:6;stroke-linecap:round;stroke-linejoin:round;stroke-miterlimit:10"></ellipse>
  <path d="M527.104 642.395c1.236 1.321 1.896 2.648 1.896 3.817 0 2.767-3.699 6.419-9.958 8.769M505.257 635.093c7.137 0 13.073 1.673 17.224 3.9" style="fill:none;stroke:#013711;stroke-width:3;stroke-linecap:round;stroke-linejoin:round;stroke-miterlimit:10"></path>
  <g style="opacity:.17">
    <circle cx="303.695" cy="244.922" r="63.745" style="fill:none;stroke:#1b3242;stroke-width:10;stroke-linecap:round;stroke-linejoin:round;stroke-miterlimit:10"></circle>
    <path d="M303.695 187.684v6.226M303.695 295.934v6.226M360.933 244.922h-6.226M252.683 244.922h-6.226" style="fill:none;stroke:#1b3242;stroke-width:6;stroke-linecap:round;stroke-linejoin:round;stroke-miterlimit:10"></path>
    <circle cx="303.695" cy="244.922" r="5.148" style="fill:#1b3242"></circle>
    <path d="m303.695 244.922 27.489-34.019" style="fill:none;stroke:#1b3242;stroke-width:4;stroke-linecap:round;stroke-linejoin:round;stroke-miterlimit:10"></path>
    <path d="m286.351 227.912 17.344 17.01" style="fill:none;stroke:#1b3242;stroke-width:6;stroke-linecap:round;stroke-linejoin:round;stroke-miterlimit:10"></path>
  </g>
</svg>
